<svg xmlns="http://www.w3.org/2000/svg" xmlns:xlink="http://www.w3.org/1999/xlink" contentStyleType="text/css" height="386px" preserveAspectRatio="none" style="width:2163px;height:386px;background:#FFFFFF;" version="1.1" viewBox="0 0 2163 386" width="2163px" zoomAndPan="magnify"><defs/><g><!--cluster e8a48653851e28c69d0506508fb27fc5--><g id="cluster_e8a48653851e28c69d0506508fb27fc5"><polygon fill="none" points="324,16,334,6,570,6,570,147.19,560,157.19,324,157.19,324,16" style="stroke:#181818;stroke-width:1.0;"/><line style="stroke:#181818;stroke-width:1.0;" x1="560" x2="570" y1="16" y2="6"/><line style="stroke:#181818;stroke-width:1.0;" x1="324" x2="560" y1="16" y2="16"/><line style="stroke:#181818;stroke-width:1.0;" x1="560" x2="560" y1="16" y2="157.19"/><text fill="#000000" font-family="sans-serif" font-size="14" font-weight="bold" lengthAdjust="spacing" textLength="71" x="407.5" y="31.9951">Postgres</text></g><!--cluster 18897dcfce6a4e7ae63a3baeed443c48--><g id="cluster_18897dcfce6a4e7ae63a3baeed443c48"><polygon fill="none" points="594,16,604,6,882,6,882,147.19,872,157.19,594,157.19,594,16" style="stroke:#181818;stroke-width:1.0;"/><line style="stroke:#181818;stroke-width:1.0;" x1="872" x2="882" y1="16" y2="6"/><line style="stroke:#181818;stroke-width:1.0;" x1="594" x2="872" y1="16" y2="16"/><line style="stroke:#181818;stroke-width:1.0;" x1="872" x2="872" y1="16" y2="157.19"/><text fill="#000000" font-family="sans-serif" font-size="14" font-weight="bold" lengthAdjust="spacing" textLength="104" x="682" y="31.9951">Elasticsearch</text></g><!--cluster aedb75dfc563674e1263316b01879722--><g id="cluster_aedb75dfc563674e1263316b01879722"><polygon fill="none" points="906,16,916,6,1090,6,1090,147.19,1080,157.19,906,157.19,906,16" style="stroke:#181818;stroke-width:1.0;"/><line style="stroke:#181818;stroke-width:1.0;" x1="1080" x2="1090" y1="16" y2="6"/><line style="stroke:#181818;stroke-width:1.0;" x1="906" x2="1080" y1="16" y2="16"/><line style="stroke:#181818;stroke-width:1.0;" x1="1080" x2="1080" y1="16" y2="157.19"/><text fill="#000000" font-family="sans-serif" font-size="14" font-weight="bold" lengthAdjust="spacing" textLength="73" x="957.5" y="31.9951">Rabbitmq</text></g><!--cluster ed29e75037443b824dbc1dcabe0af817--><g id="cluster_ed29e75037443b824dbc1dcabe0af817"><polygon fill="none" points="1114,16,1124,6,1322,6,1322,147.19,1312,157.19,1114,157.19,1114,16" style="stroke:#181818;stroke-width:1.0;"/><line style="stroke:#181818;stroke-width:1.0;" x1="1312" x2="1322" y1="16" y2="6"/><line style="stroke:#181818;stroke-width:1.0;" x1="1114" x2="1312" y1="16" y2="16"/><line style="stroke:#181818;stroke-width:1.0;" x1="1312" x2="1312" y1="16" y2="157.19"/><text fill="#000000" font-family="sans-serif" font-size="14" font-weight="bold" lengthAdjust="spacing" textLength="94" x="1167" y="31.9951">Memcached</text></g><!--cluster 2b9afb89a6acc1575b159bfca38d10ad--><g id="cluster_2b9afb89a6acc1575b159bfca38d10ad"><polygon fill="none" points="1346,16,1356,6,1592,6,1592,147.19,1582,157.19,1346,157.19,1346,16" style="stroke:#181818;stroke-width:1.0;"/><line style="stroke:#181818;stroke-width:1.0;" x1="1582" x2="1592" y1="16" y2="6"/><line style="stroke:#181818;stroke-width:1.0;" x1="1346" x2="1582" y1="16" y2="16"/><line style="stroke:#181818;stroke-width:1.0;" x1="1582" x2="1582" y1="16" y2="157.19"/><text fill="#000000" font-family="sans-serif" font-size="14" font-weight="bold" lengthAdjust="spacing" textLength="54" x="1438" y="31.9951">Django</text></g><!--cluster d48bac364ad5e16c8a0b13f87d5ae9d5--><g id="cluster_d48bac364ad5e16c8a0b13f87d5ae9d5"><polygon fill="none" points="1616,16,1626,6,1862,6,1862,147.19,1852,157.19,1616,157.19,1616,16" style="stroke:#181818;stroke-width:1.0;"/><line style="stroke:#181818;stroke-width:1.0;" x1="1852" x2="1862" y1="16" y2="6"/><line style="stroke:#181818;stroke-width:1.0;" x1="1616" x2="1852" y1="16" y2="16"/><line style="stroke:#181818;stroke-width:1.0;" x1="1852" x2="1852" y1="16" y2="157.19"/><text fill="#000000" font-family="sans-serif" font-size="14" font-weight="bold" lengthAdjust="spacing" textLength="51" x="1709.5" y="31.9951">Celery</text></g><!--cluster a01fea0c15386ae471629db43d18fe7f--><g id="cluster_a01fea0c15386ae471629db43d18fe7f"><polygon fill="none" points="1886,16,1896,6,2146,6,2146,147.19,2136,157.19,1886,157.19,1886,16" style="stroke:#181818;stroke-width:1.0;"/><line style="stroke:#181818;stroke-width:1.0;" x1="2136" x2="2146" y1="16" y2="6"/><line style="stroke:#181818;stroke-width:1.0;" x1="1886" x2="2136" y1="16" y2="16"/><line style="stroke:#181818;stroke-width:1.0;" x1="2136" x2="2136" y1="16" y2="157.19"/><text fill="#000000" font-family="sans-serif" font-size="14" font-weight="bold" lengthAdjust="spacing" textLength="70" x="1977" y="31.9951">Maploom</text></g><!--cluster ee434023cf89d7dfb21f63d64f0f9d74--><g id="cluster_ee434023cf89d7dfb21f63d64f0f9d74"><polygon fill="none" points="16,16,26,6,300,6,300,265.19,290,275.19,16,275.19,16,16" style="stroke:#181818;stroke-width:1.0;"/><line style="stroke:#181818;stroke-width:1.0;" x1="290" x2="300" y1="16" y2="6"/><line style="stroke:#181818;stroke-width:1.0;" x1="16" x2="290" y1="16" y2="16"/><line style="stroke:#181818;stroke-width:1.0;" x1="290" x2="290" y1="16" y2="275.19"/><text fill="#000000" font-family="sans-serif" font-size="14" font-weight="bold" lengthAdjust="spacing" textLength="44" x="132" y="31.9951">Nginx</text></g><!--entity 086f471fbe3ab94b73c9798cd7d205b7--><g id="elem_086f471fbe3ab94b73c9798cd7d205b7"><rect fill="#F1F1F1" height="95.1875" rx="2.5" ry="2.5" style="stroke:#181818;stroke-width:0.5;" width="215" x="339.5" y="46"/><rect fill="#F1F1F1" height="10" style="stroke:#181818;stroke-width:0.5;" width="15" x="534.5" y="51"/><rect fill="#F1F1F1" height="2" style="stroke:#181818;stroke-width:0.5;" width="4" x="532.5" y="53"/><rect fill="#F1F1F1" height="2" style="stroke:#181818;stroke-width:0.5;" width="4" x="532.5" y="57"/><text fill="#000000" font-family="sans-serif" font-size="14" font-weight="bold" lengthAdjust="spacing" textLength="71" x="354.5" y="78.9951">postgres</text><text fill="#000000" font-family="sans-serif" font-size="14" lengthAdjust="spacing" textLength="4" x="354.5" y="95.292">&#160;</text><text fill="#000000" font-family="sans-serif" font-size="14" lengthAdjust="spacing" textLength="175" x="354.5" y="111.5889">image: terranodo/postgis</text><text fill="#000000" font-family="sans-serif" font-size="14" lengthAdjust="spacing" textLength="4" x="354.5" y="127.8857">&#160;</text></g><!--entity fec57329d6a9b94d70a2945dd5dce11f--><g id="elem_fec57329d6a9b94d70a2945dd5dce11f"><rect fill="#F1F1F1" height="95.1875" rx="2.5" ry="2.5" style="stroke:#181818;stroke-width:0.5;" width="255" x="610.5" y="46"/><rect fill="#F1F1F1" height="10" style="stroke:#181818;stroke-width:0.5;" width="15" x="845.5" y="51"/><rect fill="#F1F1F1" height="2" style="stroke:#181818;stroke-width:0.5;" width="4" x="843.5" y="53"/><rect fill="#F1F1F1" height="2" style="stroke:#181818;stroke-width:0.5;" width="4" x="843.5" y="57"/><text fill="#000000" font-family="sans-serif" font-size="14" font-weight="bold" lengthAdjust="spacing" textLength="105" x="625.5" y="78.9951">elasticsearch</text><text fill="#000000" font-family="sans-serif" font-size="14" lengthAdjust="spacing" textLength="4" x="625.5" y="95.292">&#160;</text><text fill="#000000" font-family="sans-serif" font-size="14" lengthAdjust="spacing" textLength="215" x="625.5" y="111.5889">image: terranodo/elasticsearch</text><text fill="#000000" font-family="sans-serif" font-size="14" lengthAdjust="spacing" textLength="4" x="625.5" y="127.8857">&#160;</text></g><!--entity 4db5743728b42fdb09220a41ee031f8b--><g id="elem_4db5743728b42fdb09220a41ee031f8b"><rect fill="#F1F1F1" height="95.1875" rx="2.5" ry="2.5" style="stroke:#181818;stroke-width:0.5;" width="152" x="922" y="46"/><rect fill="#F1F1F1" height="10" style="stroke:#181818;stroke-width:0.5;" width="15" x="1054" y="51"/><rect fill="#F1F1F1" height="2" style="stroke:#181818;stroke-width:0.5;" width="4" x="1052" y="53"/><rect fill="#F1F1F1" height="2" style="stroke:#181818;stroke-width:0.5;" width="4" x="1052" y="57"/><text fill="#000000" font-family="sans-serif" font-size="14" font-weight="bold" lengthAdjust="spacing" textLength="70" x="937" y="78.9951">rabbitmq</text><text fill="#000000" font-family="sans-serif" font-size="14" lengthAdjust="spacing" textLength="4" x="937" y="95.292">&#160;</text><text fill="#000000" font-family="sans-serif" font-size="14" lengthAdjust="spacing" textLength="112" x="937" y="111.5889">image: rabbitmq</text><text fill="#000000" font-family="sans-serif" font-size="14" lengthAdjust="spacing" textLength="4" x="937" y="127.8857">&#160;</text></g><!--entity d9797c56b82854ce53c7c6c740e657f6--><g id="elem_d9797c56b82854ce53c7c6c740e657f6"><rect fill="#F1F1F1" height="95.1875" rx="2.5" ry="2.5" style="stroke:#181818;stroke-width:0.5;" width="177" x="1129.5" y="46"/><rect fill="#F1F1F1" height="10" style="stroke:#181818;stroke-width:0.5;" width="15" x="1286.5" y="51"/><rect fill="#F1F1F1" height="2" style="stroke:#181818;stroke-width:0.5;" width="4" x="1284.5" y="53"/><rect fill="#F1F1F1" height="2" style="stroke:#181818;stroke-width:0.5;" width="4" x="1284.5" y="57"/><text fill="#000000" font-family="sans-serif" font-size="14" font-weight="bold" lengthAdjust="spacing" textLength="95" x="1144.5" y="78.9951">memcached</text><text fill="#000000" font-family="sans-serif" font-size="14" lengthAdjust="spacing" textLength="4" x="1144.5" y="95.292">&#160;</text><text fill="#000000" font-family="sans-serif" font-size="14" lengthAdjust="spacing" textLength="137" x="1144.5" y="111.5889">image: memcached</text><text fill="#000000" font-family="sans-serif" font-size="14" lengthAdjust="spacing" textLength="4" x="1144.5" y="127.8857">&#160;</text></g><!--entity 7daba1d4c5af8b430797c813253fd1ba--><g id="elem_7daba1d4c5af8b430797c813253fd1ba"><rect fill="#F1F1F1" height="95.1875" rx="2.5" ry="2.5" style="stroke:#181818;stroke-width:0.5;" width="215" x="1361.5" y="46"/><rect fill="#F1F1F1" height="10" style="stroke:#181818;stroke-width:0.5;" width="15" x="1556.5" y="51"/><rect fill="#F1F1F1" height="2" style="stroke:#181818;stroke-width:0.5;" width="4" x="1554.5" y="53"/><rect fill="#F1F1F1" height="2" style="stroke:#181818;stroke-width:0.5;" width="4" x="1554.5" y="57"/><text fill="#000000" font-family="sans-serif" font-size="14" font-weight="bold" lengthAdjust="spacing" textLength="53" x="1376.5" y="78.9951">django</text><text fill="#000000" font-family="sans-serif" font-size="14" lengthAdjust="spacing" textLength="4" x="1376.5" y="95.292">&#160;</text><text fill="#000000" font-family="sans-serif" font-size="14" lengthAdjust="spacing" textLength="175" x="1376.5" y="111.5889">image: terranodo/registry</text><text fill="#000000" font-family="sans-serif" font-size="14" lengthAdjust="spacing" textLength="4" x="1376.5" y="127.8857">&#160;</text></g><!--entity 08b7fccb45858be7a476d4e427762e0d--><g id="elem_08b7fccb45858be7a476d4e427762e0d"><rect fill="#F1F1F1" height="95.1875" rx="2.5" ry="2.5" style="stroke:#181818;stroke-width:0.5;" width="215" x="1631.5" y="46"/><rect fill="#F1F1F1" height="10" style="stroke:#181818;stroke-width:0.5;" width="15" x="1826.5" y="51"/><rect fill="#F1F1F1" height="2" style="stroke:#181818;stroke-width:0.5;" width="4" x="1824.5" y="53"/><rect fill="#F1F1F1" height="2" style="stroke:#181818;stroke-width:0.5;" width="4" x="1824.5" y="57"/><text fill="#000000" font-family="sans-serif" font-size="14" font-weight="bold" lengthAdjust="spacing" textLength="49" x="1646.5" y="78.9951">celery</text><text fill="#000000" font-family="sans-serif" font-size="14" lengthAdjust="spacing" textLength="4" x="1646.5" y="95.292">&#160;</text><text fill="#000000" font-family="sans-serif" font-size="14" lengthAdjust="spacing" textLength="175" x="1646.5" y="111.5889">image: terranodo/registry</text><text fill="#000000" font-family="sans-serif" font-size="14" lengthAdjust="spacing" textLength="4" x="1646.5" y="127.8857">&#160;</text></g><!--entity 77ac0a29e185d756027e59af0e80b483--><g id="elem_77ac0a29e185d756027e59af0e80b483"><rect fill="#F1F1F1" height="95.1875" rx="2.5" ry="2.5" style="stroke:#181818;stroke-width:0.5;" width="228" x="1902" y="46"/><rect fill="#F1F1F1" height="10" style="stroke:#181818;stroke-width:0.5;" width="15" x="2110" y="51"/><rect fill="#F1F1F1" height="2" style="stroke:#181818;stroke-width:0.5;" width="4" x="2108" y="53"/><rect fill="#F1F1F1" height="2" style="stroke:#181818;stroke-width:0.5;" width="4" x="2108" y="57"/><text fill="#000000" font-family="sans-serif" font-size="14" font-weight="bold" lengthAdjust="spacing" textLength="71" x="1917" y="78.9951">maploom</text><text fill="#000000" font-family="sans-serif" font-size="14" lengthAdjust="spacing" textLength="4" x="1917" y="95.292">&#160;</text><text fill="#000000" font-family="sans-serif" font-size="14" lengthAdjust="spacing" textLength="188" x="1917" y="111.5889">image: terranodo/maploom</text><text fill="#000000" font-family="sans-serif" font-size="14" lengthAdjust="spacing" textLength="4" x="1917" y="127.8857">&#160;</text></g><!--entity af7a7f0b3b2e57bd500b4dc604f1838f--><g id="elem_af7a7f0b3b2e57bd500b4dc604f1838f"><rect fill="#F1F1F1" height="95.1875" rx="2.5" ry="2.5" style="stroke:#181818;stroke-width:0.5;" width="252" x="32" y="46"/><rect fill="#F1F1F1" height="10" style="stroke:#181818;stroke-width:0.5;" width="15" x="264" y="51"/><rect fill="#F1F1F1" height="2" style="stroke:#181818;stroke-width:0.5;" width="4" x="262" y="53"/><rect fill="#F1F1F1" height="2" style="stroke:#181818;stroke-width:0.5;" width="4" x="262" y="57"/><text fill="#000000" font-family="sans-serif" font-size="14" font-weight="bold" lengthAdjust="spacing" textLength="43" x="47" y="78.9951">nginx</text><text fill="#000000" font-family="sans-serif" font-size="14" lengthAdjust="spacing" textLength="4" x="47" y="95.292">&#160;</text><text fill="#000000" font-family="sans-serif" font-size="14" lengthAdjust="spacing" textLength="212" x="47" y="111.5889">image: geonode/nginx:registry</text><text fill="#000000" font-family="sans-serif" font-size="14" lengthAdjust="spacing" textLength="4" x="47" y="127.8857">&#160;</text></g><!--entity 97b04832e42a04c7beb04c21e560b3fb--><g id="elem_97b04832e42a04c7beb04c21e560b3fb"><ellipse cx="158" cy="230.19" fill="#F1F1F1" rx="8" ry="8" style="stroke:#181818;stroke-width:0.5;"/><text fill="#000000" font-family="sans-serif" font-size="14" lengthAdjust="spacing" textLength="18" x="149" y="260.1851">80</text></g><!--entity dba3f4d0bb5aa6fcfa18da2c1f7a9775--><g id="elem_dba3f4d0bb5aa6fcfa18da2c1f7a9775"><ellipse cx="158" cy="348.19" fill="#F1F1F1" rx="8" ry="8" style="stroke:#181818;stroke-width:0.5;"/><text fill="#000000" font-family="sans-serif" font-size="14" lengthAdjust="spacing" textLength="18" x="149" y="378.1851">80</text></g><!--link af7a7f0b3b2e57bd500b4dc604f1838f to 97b04832e42a04c7beb04c21e560b3fb--><g id="link_af7a7f0b3b2e57bd500b4dc604f1838f_97b04832e42a04c7beb04c21e560b3fb"><path codeLine="68" d="M158,141.67 C158,171.08 158,206.18 158,221.45 " fill="none" id="af7a7f0b3b2e57bd500b4dc604f1838f-97b04832e42a04c7beb04c21e560b3fb" style="stroke:#181818;stroke-width:1.0;"/></g><!--link 97b04832e42a04c7beb04c21e560b3fb to dba3f4d0bb5aa6fcfa18da2c1f7a9775--><g id="link_97b04832e42a04c7beb04c21e560b3fb_dba3f4d0bb5aa6fcfa18da2c1f7a9775"><path codeLine="69" d="M158,239.16 C158,260.46 158,318.46 158,339.47 " fill="none" id="97b04832e42a04c7beb04c21e560b3fb-dba3f4d0bb5aa6fcfa18da2c1f7a9775" style="stroke:#181818;stroke-width:1.0;"/></g><!--SRC=[ZTDBRnCn403W-_wALKzGgSBl6VSA78iGLyHXNWv1IROaaMY5-E-ucnPje58vhjUQ-JmFscoc7zlrtNgt6dQJsdZnSJeSLtixN8nq60qfOSaHixU0Kggwx4fss3X0app-74QPjhVJpdR7qM5f2NnZYyGrCKIfK54KDBZCC7uUBYzl7-DVNWx3UaihknwFjjzJppwzcN-k3yFmPVZrw7c_eSDnBGUZlNoTKHwnWaeJAvGCo4gao6IcAKL9U8vg9XbYg5geTfI2er1JLiqgvdsRKRPCygpixCRIzucOryVjzvb6fWnPUsLAB93CXnAZB-myGeKGpcb9EKEA491JQCgkXk0eUJCNVKEUQVl7-0lLqz6ISMDR8VbgUkgRXcgGNOHU4iRGCubN8JP73JsSExHt2JgvNyISn78Ka2AGd9KChSoExLE21UJFsLBoxXljLjFC25ofCLOg9E8pPFQvSXEAgDwHdZD0YSbhajoDdA9xKA6F8SUcdcbcw1pzsHRjhO_ESN-_nBorZUtlPumcP99O4casNmJ9iOyDGJDPrNzccVk02wUC6RbFMOAYoL80AC6SpXYPe_ytvePkDzEqFKsAyyt8zQf4B6HzRKgVqVvgzTWCsb-b0PA7kJMFMI4N5y1ohwqpT9mmdZfq2lyiv_7VKlDXjTxTdQR5KamkH6bO-wxstVQjH2sfkTOFqhc56X0qnv63PM3DhXDKYalDOyJJGkqUWYyaAviUihwPpw-NnNdrUhn0DpigiEkF2RtAv980M_-MuAq_c6FZJb_SLgROaZhcJ5IQDFAe5CHtNmN8mulGAxrwEUTB5-OeBrb-0m00]--></g></svg>